<svg height="512pt" viewBox="-15 0 512 512" width="512pt" xmlns="http://www.w3.org/2000/svg"><path d="m445.554688 127.054688-45.914063 45.914062 29.742187 29.738281 45.914063-45.910156c8.195313-8.199219 8.195313-21.542969-.003906-29.742187-3.96875-3.972657-9.25-6.160157-14.867188-6.160157-5.617187 0-10.898437 2.1875-14.871093 6.160157zm0 0"/><path d="m267.914062 304.695312 110.511719-110.511718 29.738281 29.738281-110.511718 110.515625zm0 0"/><path d="m214.269531 388.082031 37.683594-7.945312 24.488281-24.488281-29.738281-29.738282-24.488281 24.488282zm0 0"/><path d="m266.863281 407.652344-56.546875 11.921875c-1.605468.335937-6.71875.425781-7.652344.3125h-118.210937v-30h98.777344l6.296875-29.863281h-105.074219v-30h115.707031l29.863282-29.863282h-145.570313v-30h175.570313l114.960937-114.957031v-155.203125h-374.984375v512h374.984375v-212.46875zm-145.367187-317.074219h167.988281v30h-167.988281zm-37.042969 59.859375h205.03125v30h-205.03125zm0 59.863281h205.03125v30h-205.03125zm0 0"/></svg>