<?xml version="1.0" encoding="UTF-8" standalone="no"?>
<!-- Generator: Adobe Illustrator 22.1.0, SVG Export Plug-In . SVG Version: 6.00 Build 0)  -->

<svg
   xmlns:dc="http://purl.org/dc/elements/1.1/"
   xmlns:cc="http://creativecommons.org/ns#"
   xmlns:rdf="http://www.w3.org/1999/02/22-rdf-syntax-ns#"
   xmlns:svg="http://www.w3.org/2000/svg"
   xmlns="http://www.w3.org/2000/svg"
   xmlns:sodipodi="http://sodipodi.sourceforge.net/DTD/sodipodi-0.dtd"
   xmlns:inkscape="http://www.inkscape.org/namespaces/inkscape"
   version="1.1"
   id="Layer_1"
   x="0px"
   y="0px"
   viewBox="0 0 2230.4 1817.9"
   style="enable-background:new 0 0 2230.4 1817.9;"
   xml:space="preserve"
   sodipodi:docname="exercism_icon_dark.svg"
   inkscape:version="0.92.4 (5da689c313, 2019-01-14)"><metadata
   id="metadata3733"><rdf:RDF><cc:Work
       rdf:about=""><dc:format>image/svg+xml</dc:format><dc:type
         rdf:resource="http://purl.org/dc/dcmitype/StillImage" /><dc:title></dc:title></cc:Work></rdf:RDF></metadata><defs
   id="defs3731" /><sodipodi:namedview
   pagecolor="#ffffff"
   bordercolor="#666666"
   borderopacity="1"
   objecttolerance="10"
   gridtolerance="10"
   guidetolerance="10"
   inkscape:pageopacity="0"
   inkscape:pageshadow="2"
   inkscape:window-width="1920"
   inkscape:window-height="1013"
   id="namedview3729"
   showgrid="false"
   inkscape:zoom="0.45106991"
   inkscape:cx="750.51152"
   inkscape:cy="908.95001"
   inkscape:window-x="-9"
   inkscape:window-y="-9"
   inkscape:window-maximized="1"
   inkscape:current-layer="Layer_1" />
<path
   d="m 368.01391,909.7982 v -31.51383 c 79.96678,-6.91607 127.34207,-36.92925 138.9675,-102.69725 9.94543,-55.98109 -6.58551,-162.65834 -4.50234,-253.02409 2.35197,-102.43627 71.97011,-188.69151 149.58492,-199.52234 32.25552,-4.50199 55.77517,-5.41543 81.57958,-0.19574 23.51965,3.91476 42.53696,17.1597 51.34002,33.92793 v 48.41255 h -75.53166 c -65.85499,7.24231 -91.12181,50.1742 -105.7712,117.3776 -17.53893,80.25262 68.34137,366.55219 -114.84305,387.30042 183.18442,20.68299 97.30412,306.98255 114.84305,387.30035 14.64939,67.2035 39.849,110.1354 105.7712,117.3776 h 75.53166 v 48.4127 c -8.87027,16.7682 -27.82037,30.0131 -51.34002,33.9278 -25.80441,5.2197 -49.32406,4.3063 -81.57958,-0.1956 -77.61481,-10.8309 -147.23295,-97.0861 -149.58492,-199.5225 -2.08317,-90.3658 14.44777,-197.1083 4.50234,-253.024 -11.62543,-65.89849 -59.00072,-95.91167 -138.9675,-102.82779 z M 1866.82,914.82215 v -31.51383 c -79.9667,-6.91609 -127.342,-36.92926 -138.9675,-102.69725 -9.9454,-55.98109 6.5855,-162.65834 4.5024,-253.0241 -2.352,-102.43626 -71.9702,-188.69151 -149.5851,-199.52233 -32.2554,-4.50198 -55.775,-5.41543 -81.5795,-0.19575 -23.5195,3.91476 -42.537,17.1597 -51.34,33.92794 v 48.41254 h 75.5317 c 65.855,7.24231 91.1218,50.1742 105.7711,117.3776 17.5389,80.25262 -68.3413,366.55219 114.8431,387.30043 -183.1844,20.683 -97.3042,306.9825 -114.8431,387.3005 -14.6493,67.2033 -39.8489,110.1351 -105.7711,117.3775 h -75.5317 v 48.4126 c 8.8703,16.7682 27.8205,30.0131 51.34,33.9279 25.8045,5.2196 49.3241,4.3062 81.5795,-0.1957 77.6149,-10.8309 147.2331,-97.0861 149.5851,-199.5223 2.0831,-90.3659 -14.4478,-197.1084 -4.5024,-253.0243 11.6255,-65.76788 59.0008,-95.78106 138.9675,-102.69714 z"
   id="path3724"
   inkscape:connector-curvature="0"
   style="fill:#ffffff;fill-opacity:1;stroke-width:0.66215301" />
<path
   d="m 1002.5738,929.56774 c 0,-91.14868 -75.73317,-165.00718 -169.20696,-165.00718 -93.47377,0 -169.20702,73.92374 -169.20702,165.00718 h 66.0566 c 0,-55.58961 46.1657,-100.60937 103.15042,-100.60937 56.98475,0 103.15045,45.085 103.15045,100.60937 z m 572.6026,0 c 0,-91.14868 -75.7333,-165.00718 -169.207,-165.00718 -93.4739,0 -169.207,73.8585 -169.207,165.00718 h 66.0565 c 0,-55.58961 46.1658,-100.60937 103.1505,-100.60937 56.9848,0 103.1503,45.01976 103.1503,100.60937 z m -290.0981,217.85636 c -4.099,77.3819 -73.5156,143.6066 -157.1111,143.0195 -83.8644,-0.5874 -152.74326,-66.7467 -157.11123,-143.0195 v -48.4124 h 77.07733 v 48.4124 c 3.8303,39.1477 40.0505,71.2488 80.1011,70.0744 40.6554,-1.2397 78.4211,-31.4486 80.1012,-70.0744 v -48.4124 h 77.0772 v 48.4124 z"
   id="path3726"
   inkscape:connector-curvature="0"
   style="fill:#ffffff;fill-opacity:1;stroke-width:0.66215301" />
</svg>