<svg height="512pt" viewBox="-12 0 512 512" width="512pt" xmlns="http://www.w3.org/2000/svg"><path d="m121.496094 90.578125h167.988281v30h-167.988281zm0 0"/><path d="m84.453125 150.4375h205.03125v30h-205.03125zm0 0"/><path d="m84.453125 210.300781h205.03125v30h-205.03125zm0 0"/><path d="m487.703125 162.792969c0-12.859375-5.007813-24.949219-14.101563-34.042969s-21.1875-14.101562-34.046874-14.101562c-12.859376 0-24.949219 5.007812-34.042969 14.101562l-30.527344 30.53125v-159.28125h-374.984375v512h374.984375v-216.546875l98.617187-98.617187c9.09375-9.09375 14.101563-21.183594 14.101563-34.042969zm-197.890625 175.402343-25.660156-25.660156 99.96875-99.96875 25.664062 25.660156zm-46.871094-4.445312 25.660156 25.660156-21.425781 21.429688-32.519531 6.851562 6.855469-32.515625zm102.042969 148.25h-314.984375v-452h314.984375v159.28125l-80.882813 80.878906h-179.648437v30h149.648437l-29.863281 29.863282h-119.785156v30h105.378906l-6.296875 29.863281h-99.082031v30h121.375v-.023438c1.292969-.046875 2.589844-.195312 3.882813-.46875l52.375-11.042969 82.898437-82.898437zm107.402344-306.375-41.390625 41.390625-25.660156-25.664063 41.390624-41.386718c3.425782-3.429688 7.984376-5.316406 12.832032-5.316406 4.84375 0 9.402344 1.886718 12.828125 5.316406 3.429687 3.425781 5.316406 7.980468 5.316406 12.828125 0 4.847656-1.890625 9.402343-5.316406 12.832031zm0 0"/></svg>